<svg width="15" height="15" viewBox="0 0 15 15" fill="none" xmlns="http://www.w3.org/2000/svg">
<path d="M6.66667 13.9583C6.66667 14.3035 6.94649 14.5833 7.29167 14.5833C7.63684 14.5833 7.91667 14.3035 7.91667 13.9583V7.91667H13.9583C14.3035 7.91667 14.5833 7.63684 14.5833 7.29167C14.5833 6.94649 14.3035 6.66667 13.9583 6.66667H7.91667V0.625C7.91667 0.279822 7.63685 0 7.29167 0C6.94649 0 6.66667 0.279822 6.66667 0.625V6.66667H0.625C0.279822 6.66667 0 6.94649 0 7.29167C0 7.63684 0.279822 7.91667 0.625 7.91667H6.66667V13.9583Z" fill="currentColor"/>
</svg>
